<?xml version="1.0" standalone="no"?>
<!DOCTYPE svg PUBLIC "-//W3C//DTD SVG 20010904//EN"
 "http://www.w3.org/TR/2001/REC-SVG-20010904/DTD/svg10.dtd">
<svg version="1.0" xmlns="http://www.w3.org/2000/svg"
 width="688.000000pt" height="91.000000pt" viewBox="0 0 688.000000 91.000000"
 preserveAspectRatio="xMidYMid meet">

<g transform="translate(0.000000,91.000000) scale(0.100000,-0.100000)"
fill="#000000" stroke="none">
<path d="M889 879 c30 -10 56 -17 58 -15 5 5 -86 36 -101 35 -6 0 13 -9 43
-20z"/>
<path d="M970 850 c8 -5 20 -10 25 -10 6 0 3 5 -5 10 -8 5 -19 10 -25 10 -5 0
-3 -5 5 -10z"/>
<path d="M2678 813 c-27 -14 -46 -28 -44 -30 9 -9 106 32 106 44 0 18 -8 16
-62 -14z"/>
<path d="M2070 590 l0 -241 48 1 c26 0 59 -2 74 -6 19 -4 32 0 47 15 20 20 21
32 21 181 0 147 -2 162 -20 180 -22 22 -42 25 -71 10 -18 -10 -19 -7 -19 45
l0 55 -40 0 -40 0 0 -240z m110 -50 c0 -71 -4 -131 -9 -134 -16 -10 -21 23
-21 134 0 111 5 144 21 134 5 -3 9 -63 9 -134z"/>
<path d="M3529 778 c-4 -157 4 -376 14 -398 10 -20 21 -26 55 -28 39 -3 42 -1
42 21 0 14 -7 27 -15 31 -22 8 -22 276 0 276 9 0 15 9 15 25 0 16 -6 25 -15
25 -11 0 -15 12 -15 50 l0 50 -40 0 -40 0 -1 -52z"/>
<path d="M5940 820 c0 -5 5 -10 10 -10 6 0 10 5 10 10 0 6 -4 10 -10 10 -5 0
-10 -4 -10 -10z"/>
<path d="M6809 823 c-1 -5 0 -20 1 -35 1 -22 -2 -26 -20 -21 -30 8 -60 -23
-60 -63 0 -50 39 -81 68 -52 9 9 12 9 12 0 0 -6 6 -9 13 -7 14 6 11 185 -4
185 -5 0 -9 -3 -10 -7z m-1 -111 c3 -46 -16 -65 -43 -42 -30 25 -15 93 19 88
17 -2 22 -11 24 -46z"/>
<path d="M4195 764 c-14 -5 -6 -114 8 -114 8 0 12 18 12 47 0 42 3 48 23 51
20 3 22 0 22 -47 0 -34 4 -51 13 -51 8 0 11 16 9 56 -4 59 -17 73 -50 55 -11
-6 -22 -7 -24 -2 -2 4 -7 6 -13 5z"/>
<path d="M4363 763 c-15 -6 -17 -33 -3 -33 6 0 10 7 10 16 0 9 7 14 18 12 24
-5 30 -85 7 -94 -9 -4 -22 -1 -28 5 -9 10 -7 17 12 32 13 10 18 19 12 19 -14
0 -51 -36 -51 -50 0 -15 35 -29 50 -20 9 5 19 5 27 -2 15 -12 15 -10 13 57 -2
60 -22 77 -67 58z"/>
<path d="M4520 710 c33 -65 29 -100 -10 -100 -11 0 -20 -5 -20 -11 0 -6 10 -9
22 -7 17 2 30 22 59 91 29 67 34 87 23 87 -9 0 -13 -4 -10 -9 3 -5 -1 -26 -10
-47 l-16 -38 -14 24 c-7 14 -13 35 -14 48 0 15 -6 22 -20 22 -19 0 -19 -3 10
-60z"/>
<path d="M4672 758 c-15 -15 -16 -28 -2 -28 6 0 10 7 10 15 0 8 9 15 21 15 18
0 20 -5 17 -47 -2 -38 -7 -49 -22 -51 -15 -3 -18 1 -14 21 4 18 1 24 -9 20
-17 -6 -17 -50 0 -56 6 -2 20 0 29 4 10 6 19 5 23 -1 3 -5 12 -7 21 -3 10 3
11 9 5 17 -5 6 -11 32 -13 56 -3 40 -6 45 -28 48 -14 2 -31 -3 -38 -10z"/>
<path d="M4885 764 c-14 -6 -6 -114 9 -114 7 0 11 19 10 55 -1 59 -3 64 -19
59z"/>
<path d="M4925 760 c-3 -5 1 -10 9 -10 18 0 30 -39 24 -75 -4 -17 -1 -25 8
-25 17 0 19 72 4 101 -11 20 -35 25 -45 9z"/>
<path d="M5052 758 c-15 -15 -16 -28 -2 -28 6 0 10 7 10 15 0 8 9 15 21 15 18
0 20 -5 17 -47 -2 -38 -7 -49 -22 -51 -15 -3 -18 1 -14 21 4 18 1 24 -9 20
-17 -7 -17 -49 0 -56 8 -3 20 -1 28 3 7 5 18 5 24 0 6 -5 17 -5 25 0 9 6 10
10 3 10 -7 0 -13 20 -15 53 -3 47 -5 52 -28 55 -14 2 -31 -3 -38 -10z"/>
<path d="M5206 754 c-18 -17 -21 -40 -6 -49 10 -6 2 -63 -11 -81 -20 -25 54
-47 88 -26 6 4 -6 7 -27 7 -44 0 -53 6 -44 28 4 12 14 14 42 10 20 -3 41 -11
45 -17 5 -7 7 -3 5 9 -2 14 -12 21 -33 23 -47 5 -60 11 -47 24 6 6 7 19 2 33
-11 28 3 50 25 41 13 -4 16 -14 13 -36 -3 -17 -1 -30 3 -30 12 0 27 33 22 48
-3 6 1 12 9 13 16 1 -30 17 -54 18 -9 1 -24 -6 -32 -15z"/>
<path d="M5360 755 c-7 -9 -10 -19 -6 -23 4 -4 12 1 17 11 6 9 17 17 24 17 26
0 16 -34 -15 -52 -17 -10 -30 -25 -30 -36 0 -22 21 -34 39 -22 10 5 9 9 -3 13
-21 8 -21 33 0 41 28 11 35 6 32 -21 -2 -19 2 -29 13 -31 13 -2 15 5 9 45 -3
27 -9 54 -13 61 -11 17 -52 15 -67 -3z"/>
<path d="M5505 759 c-11 -4 -14 -8 -7 -8 8 -1 12 -18 12 -51 0 -33 4 -50 13
-50 8 0 12 16 12 47 0 35 4 48 15 49 8 1 19 2 25 3 5 0 4 6 -3 13 -8 8 -15 8
-26 -1 -8 -6 -16 -8 -18 -3 -1 5 -12 6 -23 1z"/>
<path d="M5692 763 c-10 -4 -10 -8 -1 -19 6 -7 9 -32 7 -54 -2 -28 0 -40 9
-40 9 0 13 18 13 60 0 59 -2 64 -28 53z"/>
<path d="M5736 761 c-3 -5 3 -11 14 -14 16 -4 20 -14 20 -51 0 -61 18 -59 22
2 3 40 6 47 26 50 20 3 22 0 22 -47 0 -34 4 -51 13 -51 8 0 11 16 9 56 -4 61
-20 76 -55 55 -14 -9 -22 -10 -30 -2 -13 13 -34 14 -41 2z"/>
<path d="M5935 759 c-11 -4 -14 -8 -7 -8 8 -1 12 -18 12 -51 0 -33 4 -50 13
-50 8 0 11 14 9 48 -4 70 -5 70 -27 61z"/>
<path d="M6030 760 c-11 -7 -12 -10 -2 -10 10 0 13 -13 10 -50 -2 -39 0 -50
12 -50 11 0 15 12 15 47 0 35 4 48 15 49 8 1 19 2 25 3 5 0 4 6 -3 13 -8 8
-15 8 -27 -2 -10 -8 -15 -9 -15 -1 0 13 -10 14 -30 1z"/>
<path d="M6162 758 c-15 -15 -16 -28 -2 -28 6 0 10 7 10 15 0 8 9 15 21 15 18
0 20 -5 17 -47 -2 -38 -7 -49 -22 -51 -15 -3 -18 1 -14 21 4 18 1 24 -9 20
-17 -7 -17 -49 0 -56 8 -3 20 -1 28 3 7 5 18 5 24 0 6 -5 17 -5 25 0 9 6 10
10 3 10 -7 0 -13 20 -15 53 -3 47 -5 52 -28 55 -14 2 -31 -3 -38 -10z"/>
<path d="M6300 760 c-11 -7 -12 -10 -2 -10 10 0 13 -13 10 -50 -2 -34 1 -50 9
-50 7 0 13 19 15 48 2 38 6 47 21 46 9 -1 17 4 17 12 0 17 -12 18 -28 2 -9 -9
-12 -9 -12 0 0 14 -10 15 -30 2z"/>
<path d="M6436 755 c-26 -27 -29 -56 -8 -84 10 -14 28 -27 38 -29 16 -3 16 -1
-3 13 -28 20 -33 92 -8 101 28 11 47 -16 43 -64 -3 -43 -3 -43 14 -22 23 29
23 55 -2 80 -24 24 -53 26 -74 5z"/>
<path d="M6590 755 c-7 -8 -10 -19 -6 -23 4 -4 12 1 17 11 14 23 39 22 39 -3
0 -11 -6 -20 -12 -20 -10 0 -10 -3 0 -9 19 -12 11 -45 -12 -49 -15 -3 -18 1
-14 22 4 21 3 24 -8 15 -17 -14 -18 -46 -1 -52 6 -2 21 0 32 6 13 7 20 7 23
-1 2 -6 10 -8 18 -5 10 3 11 9 5 17 -5 6 -11 32 -13 56 -3 40 -6 45 -29 48
-14 2 -31 -4 -39 -13z"/>
<path d="M1570 545 l0 -195 40 0 40 0 0 165 c0 91 4 165 9 165 13 0 21 -26 21
-66 0 -32 2 -34 35 -34 l35 0 0 63 c0 49 -4 68 -18 80 -22 20 -53 22 -70 5 -9
-9 -12 -9 -12 0 0 7 -16 12 -40 12 l-40 0 0 -195z"/>
<path d="M2350 720 c-18 -18 -20 -33 -20 -173 0 -191 3 -197 93 -197 34 0 68
4 76 9 9 6 16 32 19 70 l4 61 -40 0 -41 0 -3 -42 c-4 -63 -23 -48 -26 22 l-3
60 56 0 55 0 0 85 c0 108 -13 125 -95 125 -42 0 -60 -5 -75 -20z m88 -87 c-4
-66 -28 -70 -28 -4 0 39 4 51 16 51 12 0 14 -10 12 -47z"/>
<path d="M2612 724 c-21 -15 -22 -21 -22 -178 0 -194 1 -196 98 -196 74 0 92
18 92 92 l0 48 -39 0 c-40 0 -40 0 -43 -42 -2 -23 -9 -43 -15 -46 -10 -3 -13
14 -13 62 l0 66 56 0 56 0 -4 91 c-2 76 -6 93 -22 105 -27 19 -116 18 -144 -2z
m86 -91 c-4 -66 -28 -70 -28 -4 0 39 4 51 16 51 12 0 14 -10 12 -47z"/>
<path d="M3063 734 c-24 -6 -43 -49 -43 -100 0 -33 1 -34 40 -34 l40 0 0 40
c0 29 4 40 15 40 11 0 15 -12 15 -44 0 -42 -2 -46 -49 -75 -56 -34 -68 -64
-58 -149 6 -53 29 -76 67 -67 14 3 47 5 73 5 l48 -1 -3 180 c-2 111 -7 184
-14 191 -12 12 -97 21 -131 14z m67 -275 c0 -44 -3 -60 -12 -57 -13 5 -23 80
-14 104 13 34 26 10 26 -47z"/>
<path d="M3387 733 c-4 -4 -30 -6 -57 -4 l-50 2 0 -191 0 -190 40 0 40 0 0
166 c0 128 3 165 13 162 6 -3 13 -25 15 -51 3 -46 4 -47 38 -47 l34 0 0 64 c0
56 -3 67 -22 80 -24 17 -41 20 -51 9z"/>
<path d="M3733 729 c-25 -13 -33 -36 -33 -106 0 -56 16 -76 80 -103 28 -12 30
-16 30 -66 0 -41 -4 -54 -15 -54 -11 0 -15 12 -15 45 l0 45 -40 0 -40 0 0 -48
c0 -75 18 -92 95 -92 79 0 95 17 95 101 0 77 -5 86 -61 115 -48 24 -49 26 -49
69 0 33 4 45 15 45 11 0 15 -11 15 -40 l0 -40 41 0 41 0 -4 55 c-3 31 -10 61
-16 67 -16 16 -112 20 -139 7z"/>
<path d="M1812 549 c3 -167 5 -182 23 -195 12 -9 30 -13 45 -9 14 3 46 5 73 5
l47 -1 0 191 0 190 -40 0 -40 0 0 -165 c0 -150 -7 -193 -24 -149 -3 9 -6 83
-6 165 l0 149 -41 0 -40 0 3 -181z"/>
<path d="M816 564 c-33 -32 -13 -74 36 -74 37 0 64 39 48 69 -13 25 -61 28
-84 5z m72 -6 c-6 -18 -28 -21 -28 -4 0 9 7 16 16 16 9 0 14 -5 12 -12z"/>
<path d="M4449 523 c0 -5 0 -39 1 -78 1 -69 14 -96 44 -95 6 0 3 7 -6 14 -20
15 -24 66 -6 84 18 18 48 -4 48 -36 0 -16 -5 -33 -12 -40 -9 -9 -9 -12 0 -12
17 0 34 37 30 67 -4 35 -32 52 -58 35 -19 -11 -20 -10 -20 28 0 22 -4 40 -10
40 -5 0 -10 -3 -11 -7z"/>
<path d="M6090 520 c0 -5 5 -10 10 -10 6 0 10 5 10 10 0 6 -4 10 -10 10 -5 0
-10 -4 -10 -10z"/>
<path d="M6189 526 c-8 -8 3 -166 12 -166 5 0 9 38 9 85 0 74 -6 96 -21 81z"/>
<path d="M1237 496 c-54 -15 -67 -22 -61 -35 3 -9 8 -33 11 -53 6 -44 17 -47
64 -15 39 26 62 67 57 100 l-3 23 -68 -20z"/>
<path d="M5335 494 c-43 -47 -42 -129 2 -166 9 -8 7 1 -6 22 -32 54 -26 95 22
148 11 12 17 22 13 22 -4 0 -18 -12 -31 -26z"/>
<path d="M5476 498 c10 -14 21 -24 23 -22 3 3 -6 15 -18 27 l-24 22 19 -27z"/>
<path d="M5086 481 c-11 -12 -14 -21 -8 -21 8 0 12 -19 12 -50 0 -45 2 -50 23
-49 12 0 16 3 10 6 -8 3 -13 23 -13 49 0 28 4 44 13 44 8 0 9 3 1 8 -6 4 -13
13 -15 20 -3 10 -10 8 -23 -7z"/>
<path d="M705 445 c-33 -32 -31 -61 5 -130 34 -64 36 -91 16 -159 -15 -50 -12
-76 9 -76 17 0 28 17 48 70 13 35 17 79 17 183 l0 137 -35 0 c-25 0 -44 -8
-60 -25z"/>
<path d="M4189 466 c-9 -10 4 -106 14 -106 8 0 11 18 9 55 -3 49 -10 64 -23
51z"/>
<path d="M4225 460 c3 -5 10 -10 16 -10 5 0 9 5 9 10 0 6 -7 10 -16 10 -8 0
-12 -4 -9 -10z"/>
<path d="M4298 420 c4 -53 24 -82 44 -62 9 9 8 12 -5 12 -14 0 -17 10 -17 50
0 33 -4 50 -12 50 -9 0 -12 -15 -10 -50z"/>
<path d="M4367 418 c1 -29 2 -56 2 -60 1 -4 7 -5 14 -3 16 7 10 115 -6 115 -8
0 -11 -18 -10 -52z"/>
<path d="M4622 415 c24 -45 27 -58 18 -75 -7 -13 -18 -19 -26 -16 -8 3 -14 -1
-14 -9 0 -8 3 -15 8 -15 18 1 32 20 58 80 15 36 32 71 37 78 7 8 5 12 -7 12
-9 0 -15 -3 -15 -7 3 -20 -2 -41 -15 -58 -13 -18 -15 -17 -27 23 -8 28 -18 42
-30 42 -15 0 -13 -7 13 -55z"/>
<path d="M4833 455 c-9 -25 4 -29 17 -6 7 15 7 21 0 21 -6 0 -13 -7 -17 -15z"/>
<path d="M4880 455 c7 -9 11 -17 9 -18 -2 -2 -16 -11 -31 -20 -16 -10 -28 -26
-28 -37 0 -16 7 -19 43 -18 42 0 43 1 40 32 -7 60 -14 76 -29 76 -14 0 -14 -3
-4 -15z m10 -55 c0 -23 -26 -38 -41 -23 -7 7 -5 16 6 27 22 22 35 20 35 -4z"/>
<path d="M4975 413 c0 -36 4 -53 13 -53 8 0 10 8 6 24 -8 35 4 66 27 66 10 0
19 4 19 9 0 5 -15 9 -32 8 -33 -1 -33 -1 -33 -54z"/>
<path d="M5187 463 c-15 -14 -6 -41 18 -57 14 -9 25 -23 25 -32 0 -8 5 -12 10
-9 20 12 9 40 -21 58 -20 11 -29 22 -25 32 6 16 3 19 -7 8z"/>
<path d="M5225 460 c3 -5 8 -10 11 -10 2 0 4 5 4 10 0 6 -5 10 -11 10 -5 0 -7
-4 -4 -10z"/>
<path d="M5370 438 c-11 -18 -20 -41 -20 -51 0 -22 27 -34 43 -18 9 10 9 12
-2 9 -24 -5 -25 32 -2 63 12 16 17 29 11 29 -6 0 -19 -15 -30 -32z"/>
<path d="M5437 463 c-4 -3 -7 -17 -7 -29 0 -13 -4 -25 -9 -28 -15 -10 0 -46
18 -46 18 0 61 39 61 54 0 5 -9 -3 -21 -18 -11 -14 -25 -26 -31 -26 -11 0 -6
48 7 83 7 17 -5 24 -18 10z"/>
<path d="M5575 458 c-3 -7 -3 -35 -2 -61 2 -26 0 -50 -5 -53 -18 -12 -6 -33
22 -39 21 -5 39 -2 56 10 36 23 27 49 -19 55 -21 3 -37 10 -37 15 1 6 9 9 18
7 14 -3 14 -1 -2 11 -13 10 -17 22 -14 40 5 27 -9 38 -17 15z m84 -114 c10 -9
-15 -24 -43 -24 -39 0 -50 8 -34 27 10 12 62 10 77 -3z"/>
<path d="M5628 435 c5 -39 17 -39 24 -1 4 21 -7 36 -26 36 -1 0 0 -16 2 -35z"/>
<path d="M5720 415 c0 -38 4 -55 13 -55 9 0 11 12 9 38 -3 26 1 42 12 51 23
20 36 4 36 -45 0 -28 4 -44 13 -44 8 0 11 15 8 51 -3 55 -20 71 -52 50 -12 -7
-19 -7 -19 -1 0 5 -4 10 -10 10 -5 0 -10 -25 -10 -55z"/>
<path d="M5826 461 c-3 -5 2 -8 12 -7 14 1 18 -9 20 -46 2 -27 7 -48 13 -48
10 0 12 69 3 94 -7 17 -39 22 -48 7z"/>
<path d="M5943 455 c-9 -25 4 -29 17 -6 7 15 7 21 0 21 -6 0 -13 -7 -17 -15z"/>
<path d="M5990 455 c7 -9 11 -17 9 -18 -2 -2 -16 -11 -31 -20 -16 -10 -28 -26
-28 -37 0 -16 7 -19 43 -18 42 0 43 1 40 32 -7 60 -14 76 -29 76 -14 0 -14 -3
-4 -15z m10 -55 c0 -23 -26 -38 -41 -23 -7 7 -5 16 6 27 22 22 35 20 35 -4z"/>
<path d="M6090 415 c0 -37 4 -55 13 -55 8 0 11 16 9 55 -5 71 -22 71 -22 0z"/>
<path d="M6377 452 c-26 -28 -21 -69 9 -88 24 -16 26 -16 47 6 l22 22 -23 -13
c-21 -12 -25 -12 -38 5 -31 42 -5 96 31 66 17 -14 31 -8 20 9 -10 17 -50 13
-68 -7z"/>
<path d="M6517 452 c-10 -10 -17 -28 -17 -40 0 -22 32 -62 50 -62 6 0 1 9 -11
21 -14 14 -19 30 -17 52 2 27 7 32 28 32 23 0 25 -3 25 -48 0 -47 0 -48 18
-26 21 26 21 38 1 67 -18 27 -55 29 -77 4z"/>
<path d="M6663 415 c1 -30 7 -55 12 -55 6 0 9 16 7 38 -3 26 1 42 12 51 23 20
36 4 36 -45 0 -29 4 -44 13 -44 9 0 11 12 9 38 -3 26 1 42 12 51 23 20 36 4
36 -45 0 -24 5 -44 10 -44 6 0 10 23 10 50 0 54 -17 73 -49 53 -11 -7 -22 -7
-34 1 -12 8 -22 8 -37 -2 -12 -7 -20 -8 -20 -2 0 5 -4 10 -9 10 -6 0 -9 -25
-8 -55z"/>
<path d="M4745 371 c-6 -11 9 -23 19 -14 9 9 7 23 -3 23 -6 0 -12 -4 -16 -9z"/>
<path d="M5180 371 c0 -9 30 -24 36 -18 2 1 -6 8 -16 15 -11 7 -20 8 -20 3z"/>
<path d="M6280 371 c0 -6 5 -13 10 -16 6 -3 10 1 10 9 0 9 -4 16 -10 16 -5 0
-10 -4 -10 -9z"/>
<path d="M5465 329 c-16 -10 -25 -19 -19 -19 7 0 22 9 35 20 30 24 23 24 -16
-1z"/>
<path d="M5398 303 c6 -2 18 -2 25 0 6 3 1 5 -13 5 -14 0 -19 -2 -12 -5z"/>
<path d="M1650 191 c0 -35 -2 -38 -24 -34 -18 4 -29 -2 -41 -21 -16 -24 -16
-28 -1 -51 13 -20 23 -24 49 -21 l32 3 3 82 c2 51 -1 81 -8 81 -5 0 -10 -17
-10 -39z m-5 -81 c0 -18 -6 -26 -23 -28 -24 -4 -38 18 -28 44 3 9 15 14 28 12
17 -2 23 -10 23 -28z"/>
<path d="M2394 145 c0 -50 1 -71 3 -48 2 23 2 64 0 90 -2 26 -3 8 -3 -42z"/>
<path d="M3150 150 c0 -47 4 -80 10 -80 6 0 10 33 10 80 0 47 -4 80 -10 80 -6
0 -10 -33 -10 -80z"/>
<path d="M3450 151 c0 -44 5 -83 10 -86 6 -4 10 8 10 28 0 34 20 64 33 50 4
-3 7 -21 7 -39 0 -18 5 -36 10 -39 12 -8 13 64 1 84 -5 8 -18 12 -30 8 -19 -5
-21 -1 -21 34 0 21 -4 39 -10 39 -6 0 -10 -33 -10 -79z"/>
<path d="M4500 135 c0 -50 4 -85 10 -85 6 0 10 35 10 85 0 50 -4 85 -10 85 -6
0 -10 -35 -10 -85z"/>
<path d="M4614 135 c0 -50 1 -71 3 -48 2 23 2 64 0 90 -2 26 -3 8 -3 -42z"/>
<path d="M1955 190 c3 -5 8 -10 11 -10 2 0 4 5 4 10 0 6 -5 10 -11 10 -5 0 -7
-4 -4 -10z"/>
<path d="M2785 190 c3 -5 8 -10 11 -10 2 0 4 5 4 10 0 6 -5 10 -11 10 -5 0 -7
-4 -4 -10z"/>
<path d="M4915 176 c-19 -29 -8 -61 26 -71 19 -6 19 -8 4 -31 -26 -40 -2 -27
28 15 29 42 35 79 15 99 -20 20 -56 14 -73 -12z m65 -1 c20 -25 8 -50 -25 -50
-21 0 -31 5 -33 18 -4 21 14 47 33 47 7 0 18 -7 25 -15z"/>
<path d="M5104 185 c-4 -8 -4 -25 -1 -37 3 -12 2 -30 -4 -40 -15 -28 6 -58 41
-58 32 0 57 31 43 53 -4 6 -7 30 -8 52 0 38 -2 40 -33 43 -22 2 -34 -2 -38
-13z m53 -6 c15 -15 5 -39 -17 -39 -22 0 -32 24 -17 39 6 6 14 11 17 11 3 0
11 -5 17 -11z m10 -75 c3 -8 -2 -23 -11 -32 -15 -15 -17 -15 -32 0 -21 21 -11
48 16 48 11 0 23 -7 27 -16z"/>
<path d="M5300 158 c-34 -46 -37 -69 -14 -92 24 -24 61 -20 80 9 15 23 15 27
0 50 -9 14 -24 25 -32 25 -15 0 -15 2 0 25 28 42 -2 28 -34 -17z m55 -49 c14
-42 -45 -66 -61 -24 -10 25 4 45 30 45 16 0 27 -7 31 -21z"/>
<path d="M5493 193 c20 -2 37 -9 37 -14 0 -5 -16 -34 -37 -64 -20 -31 -33 -58
-30 -61 3 -3 28 28 56 70 l52 76 -58 -2 c-43 -1 -48 -2 -20 -5z"/>
<path d="M5752 142 l-43 -62 35 0 c25 0 36 -4 36 -15 0 -8 5 -15 10 -15 6 0
10 7 10 15 0 8 6 15 13 15 9 0 9 2 0 8 -6 4 -13 32 -15 61 l-3 54 -43 -61z
m28 -22 c0 -23 -4 -30 -20 -30 -24 0 -25 4 -4 35 21 32 24 31 24 -5z"/>
<path d="M5998 193 c8 -3 12 -28 12 -74 0 -39 4 -69 10 -69 6 0 10 32 10 75 0
71 -1 75 -22 74 -13 0 -17 -3 -10 -6z"/>
<path d="M6129 183 c-8 -9 -14 -35 -14 -58 0 -49 18 -75 51 -75 29 0 54 35 54
75 0 62 -58 99 -91 58z m59 -5 c23 -23 9 -118 -18 -118 -18 0 -40 33 -40 61 0
56 30 85 58 57z"/>
<path d="M6408 187 c6 -7 13 -42 15 -77 l3 -65 2 78 c2 65 0 77 -14 77 -12 0
-14 -3 -6 -13z"/>
<path d="M6524 163 c-13 -31 -14 -41 -2 -72 26 -68 98 -45 98 31 0 56 -15 78
-51 78 -25 0 -33 -6 -45 -37z m67 11 c18 -22 15 -83 -6 -103 -15 -15 -18 -14
-36 8 -23 28 -24 59 -3 89 18 26 27 27 45 6z"/>
<path d="M6812 143 l-43 -63 36 0 c24 0 35 -4 35 -15 0 -21 17 -19 21 3 2 9 2
44 -1 77 l-5 60 -43 -62z m28 -23 c0 -25 -4 -30 -25 -30 l-26 0 23 30 c12 17
23 30 25 30 2 0 3 -13 3 -30z"/>
<path d="M2988 175 c-2 -11 -1 -42 2 -70 l7 -50 2 42 c0 23 7 44 14 46 8 4 9
8 1 14 -6 4 -13 15 -16 23 -3 11 -6 9 -10 -5z"/>
<path d="M3718 173 c-6 -25 6 -120 14 -108 13 22 13 125 -1 125 -5 0 -11 -8
-13 -17z"/>
<path d="M1726 144 c-21 -21 -20 -47 2 -67 23 -21 46 -22 61 -3 10 12 6 14
-20 13 -18 -1 -34 4 -36 11 -3 8 7 12 31 12 37 0 47 15 24 38 -17 17 -44 15
-62 -4z m54 -15 c0 -5 -12 -9 -26 -9 -22 0 -24 2 -14 14 12 15 40 11 40 -5z"/>
<path d="M1853 143 c-4 -11 1 -22 15 -31 31 -20 28 -36 -5 -27 -26 6 -27 5
-11 -11 9 -9 24 -14 32 -11 23 9 20 42 -6 60 l-23 16 23 0 c13 1 20 5 17 11
-10 16 -35 12 -42 -7z"/>
<path d="M1957 153 c-11 -10 -8 -81 3 -88 6 -4 10 13 10 44 0 52 -1 56 -13 44z"/>
<path d="M2032 148 c-32 -32 1 -94 46 -83 20 5 23 3 18 -10 -3 -9 -6 -19 -6
-21 0 -9 -39 -4 -45 6 -10 16 -25 12 -19 -5 8 -20 40 -28 64 -15 17 9 20 21
20 73 l0 63 -33 2 c-18 1 -38 -3 -45 -10z m62 -24 c9 -24 -5 -45 -28 -42 -13
2 -22 12 -24 27 -6 38 38 51 52 15z"/>
<path d="M2171 106 c1 -51 1 -51 9 -13 13 70 44 69 53 -3 3 -23 4 -18 3 15 -1
49 -1 50 -33 51 l-33 1 1 -51z"/>
<path d="M2550 83 c0 -42 4 -73 10 -73 6 0 10 13 10 29 0 24 3 28 20 24 28 -7
50 14 50 47 0 35 -17 49 -58 48 l-32 -1 0 -74z m80 34 c-1 -38 -51 -50 -58
-14 -6 28 16 49 39 36 10 -5 19 -15 19 -22z"/>
<path d="M2690 109 c0 -31 4 -48 10 -44 6 3 10 20 10 37 0 18 7 36 18 44 15
12 14 13 -10 14 -27 0 -28 -2 -28 -51z"/>
<path d="M2787 153 c-11 -10 -8 -81 3 -88 6 -4 10 13 10 44 0 52 -1 56 -13 44z"/>
<path d="M2861 106 c1 -51 1 -51 9 -13 13 70 44 69 53 -3 3 -23 4 -18 3 15 -1
49 -1 50 -33 51 l-33 1 1 -51z"/>
<path d="M3310 83 c0 -42 4 -73 10 -73 6 0 10 14 10 30 0 27 3 30 24 24 18 -4
28 0 40 17 9 13 16 29 16 36 0 23 -31 42 -65 41 l-35 -1 0 -74z m75 27 c0 -18
-6 -26 -23 -28 -13 -2 -25 3 -28 12 -10 26 4 48 28 44 17 -2 23 -10 23 -28z"/>
<path d="M3585 136 c-13 -19 -14 -29 -6 -45 25 -45 91 -33 91 17 0 54 -56 72
-85 28z m69 -13 c9 -22 -13 -45 -38 -41 -26 4 -33 38 -11 54 20 15 41 9 49
-13z"/>
<path d="M3794 139 c-17 -19 -17 -23 -3 -47 18 -33 44 -39 70 -16 23 21 24 47
3 68 -21 22 -47 20 -70 -5z m61 -29 c0 -18 -6 -26 -23 -28 -13 -2 -25 3 -28
12 -10 26 4 48 28 44 17 -2 23 -10 23 -28z"/>
<path d="M4189 131 c-20 -16 -22 -23 -14 -47 8 -23 17 -30 43 -32 18 -2 32 1
32 7 0 6 -9 10 -21 8 -25 -2 -45 23 -35 48 4 12 14 16 32 12 15 -3 23 0 21 7
-6 19 -33 18 -58 -3z"/>
<path d="M4346 134 c-20 -19 -21 -58 -2 -74 19 -15 58 -9 64 10 5 13 3 13 -11
1 -18 -14 -47 -9 -47 9 0 5 16 10 35 10 39 0 46 17 17 43 -23 21 -36 21 -56 1z
m49 -14 c4 -6 -5 -10 -20 -10 -15 0 -24 4 -20 10 3 6 12 10 20 10 8 0 17 -4
20 -10z"/>
<path d="M4725 140 c-3 -5 -1 -10 4 -10 6 0 11 5 11 10 0 6 -2 10 -4 10 -3 0
-8 -4 -11 -10z"/>
<path d="M4720 60 c0 -5 5 -10 10 -10 6 0 10 5 10 10 0 6 -4 10 -10 10 -5 0
-10 -4 -10 -10z"/>
</g>
</svg>
